<svg xmlns="http://www.w3.org/2000/svg" viewBox="0 0 144 144" width="144" height="144">
    <defs>
      <linearGradient id="bg" x1="0%" y1="0%" x2="100%" y2="100%">
        <stop offset="0%" stop-color="#1c1917"/>
        <stop offset="100%" stop-color="#44403c"/>
      </linearGradient>
    </defs>
    <rect width="144" height="144" rx="14.4" fill="url(#bg)"/>
    <g fill="#f7f2ec" transform="translate(28.8, 28.8)">
      <!-- L -->
      <rect x="0" y="0" width="11.52" height="69.12" rx="1.44"/>
      <rect x="0" y="57.6" width="23.04" height="11.52" rx="1.44"/>
      <!-- C -->
      <path d="M 34.56 0 C 51.839999999999996 0 66.24000000000001 14.4 66.24000000000001 34.56 C 66.24000000000001 54.72 51.839999999999996 69.12 34.56 69.12 L 34.56 57.6 C 46.08 57.6 54.72 48.96 54.72 34.56 C 54.72 20.160000000000004 46.08 11.52 34.56 11.52 L 34.56 0 Z"/>
      <rect x="34.56" y="11.52" width="11.52" height="11.52" rx="1.44"/>
      <rect x="34.56" y="46.08" width="11.52" height="11.52" rx="1.44"/>
    </g>
  </svg>