<svg xmlns="http://www.w3.org/2000/svg" viewBox="0 0 384 384" width="384" height="384">
    <defs>
      <linearGradient id="bg" x1="0%" y1="0%" x2="100%" y2="100%">
        <stop offset="0%" stop-color="#1c1917"/>
        <stop offset="100%" stop-color="#44403c"/>
      </linearGradient>
    </defs>
    <rect width="384" height="384" rx="38.400000000000006" fill="url(#bg)"/>
    <g fill="#f7f2ec" transform="translate(76.80000000000001, 76.80000000000001)">
      <!-- L -->
      <rect x="0" y="0" width="30.72" height="184.32" rx="3.84"/>
      <rect x="0" y="153.60000000000002" width="61.44" height="30.72" rx="3.84"/>
      <!-- C -->
      <path d="M 92.16 0 C 138.24 0 176.64000000000001 38.400000000000006 176.64000000000001 92.16 C 176.64000000000001 145.92000000000002 138.24 184.32 92.16 184.32 L 92.16 153.60000000000002 C 122.88 153.60000000000002 145.92000000000002 130.56 145.92000000000002 92.16 C 145.92000000000002 53.760000000000005 122.88 30.72 92.16 30.72 L 92.16 0 Z"/>
      <rect x="92.16" y="30.72" width="30.72" height="30.72" rx="3.84"/>
      <rect x="92.16" y="122.88" width="30.72" height="30.72" rx="3.84"/>
    </g>
  </svg>