<svg xmlns="http://www.w3.org/2000/svg" viewBox="0 0 96 96" width="96" height="96">
    <defs>
      <linearGradient id="bg" x1="0%" y1="0%" x2="100%" y2="100%">
        <stop offset="0%" stop-color="#1c1917"/>
        <stop offset="100%" stop-color="#44403c"/>
      </linearGradient>
    </defs>
    <rect width="96" height="96" rx="9.600000000000001" fill="url(#bg)"/>
    <g fill="#f7f2ec" transform="translate(19.200000000000003, 19.200000000000003)">
      <!-- L -->
      <rect x="0" y="0" width="7.68" height="46.08" rx="0.96"/>
      <rect x="0" y="38.400000000000006" width="15.36" height="7.68" rx="0.96"/>
      <!-- C -->
      <path d="M 23.04 0 C 34.56 0 44.160000000000004 9.600000000000001 44.160000000000004 23.04 C 44.160000000000004 36.480000000000004 34.56 46.08 23.04 46.08 L 23.04 38.400000000000006 C 30.72 38.400000000000006 36.480000000000004 32.64 36.480000000000004 23.04 C 36.480000000000004 13.440000000000001 30.72 7.68 23.04 7.68 L 23.04 0 Z"/>
      <rect x="23.04" y="7.68" width="7.68" height="7.68" rx="0.96"/>
      <rect x="23.04" y="30.72" width="7.68" height="7.68" rx="0.96"/>
    </g>
  </svg>