<svg xmlns="http://www.w3.org/2000/svg" viewBox="0 0 192 192" width="192" height="192">
    <defs>
      <linearGradient id="bg" x1="0%" y1="0%" x2="100%" y2="100%">
        <stop offset="0%" stop-color="#1c1917"/>
        <stop offset="100%" stop-color="#44403c"/>
      </linearGradient>
    </defs>
    <rect width="192" height="192" rx="19.200000000000003" fill="url(#bg)"/>
    <g fill="#f7f2ec" transform="translate(38.400000000000006, 38.400000000000006)">
      <!-- L -->
      <rect x="0" y="0" width="15.36" height="92.16" rx="1.92"/>
      <rect x="0" y="76.80000000000001" width="30.72" height="15.36" rx="1.92"/>
      <!-- C -->
      <path d="M 46.08 0 C 69.12 0 88.32000000000001 19.200000000000003 88.32000000000001 46.08 C 88.32000000000001 72.96000000000001 69.12 92.16 46.08 92.16 L 46.08 76.80000000000001 C 61.44 76.80000000000001 72.96000000000001 65.28 72.96000000000001 46.08 C 72.96000000000001 26.880000000000003 61.44 15.36 46.08 15.36 L 46.08 0 Z"/>
      <rect x="46.08" y="15.36" width="15.36" height="15.36" rx="1.92"/>
      <rect x="46.08" y="61.44" width="15.36" height="15.36" rx="1.92"/>
    </g>
  </svg>